<?xml version="1.0" encoding="UTF-8" standalone="no"?>
<!DOCTYPE svg PUBLIC "-//W3C//DTD SVG 1.1//EN" "http://www.w3.org/Graphics/SVG/1.1/DTD/svg11.dtd">
<svg xmlns="http://www.w3.org/2000/svg" version="1.1" viewBox="0.00 0.00 1187.00 767.00">
<path fill="#c20e1a" d="
  M 457.00 330.76
  A 0.33 0.33 0.0 0 0 456.72 330.29
  L 390.27 327.91
  A 0.55 0.54 1.1 0 1 389.74 327.37
  L 389.74 313.65
  A 0.72 0.71 0.4 0 1 390.47 312.94
  L 464.41 314.21
  A 0.86 0.86 0.0 0 0 465.20 313.72
  Q 526.87 185.49 606.79 19.29
  C 610.11 12.38 612.01 7.59 617.75 4.33
  C 623.83 0.88 631.42 1.88 635.98 7.31
  C 639.35 11.31 639.94 16.82 639.09 22.49
  Q 639.02 22.94 604.09 316.36
  A 0.36 0.35 -85.6 0 0 604.43 316.76
  L 676.38 317.99
  A 0.39 0.38 -87.7 0 0 676.77 317.62
  Q 676.99 312.48 683.23 183.02
  C 683.52 177.04 690.86 174.95 695.64 176.14
  Q 701.44 177.59 702.94 182.12
  Q 703.47 183.72 702.85 191.89
  Q 701.94 204.04 693.97 317.61
  A 0.69 0.69 0.0 0 0 694.65 318.35
  L 726.93 318.90
  A 0.31 0.31 0.0 0 0 727.25 318.63
  Q 745.28 206.17 745.34 205.67
  Q 745.90 200.60 747.64 198.66
  C 753.15 192.54 767.56 194.34 765.63 204.93
  Q 747.18 306.30 744.88 318.63
  A 0.49 0.48 5.6 0 0 745.35 319.20
  Q 760.76 319.57 786.63 319.96
  Q 790.76 320.02 792.20 320.84
  C 798.95 324.70 797.55 338.30 790.72 341.44
  Q 789.00 342.23 784.92 342.08
  Q 757.12 341.06 741.19 340.49
  A 0.32 0.31 -83.6 0 0 740.87 340.75
  L 723.64 435.13
  A 0.46 0.45 5.3 0 1 723.19 435.50
  L 709.11 435.50
  A 0.47 0.46 4.7 0 1 708.65 434.96
  L 723.76 340.49
  A 0.56 0.56 0.0 0 0 723.23 339.84
  L 693.13 338.77
  A 0.68 0.68 0.0 0 0 692.42 339.40
  L 687.05 415.68
  A 0.61 0.61 0.0 0 1 686.44 416.25
  L 672.32 416.25
  A 0.29 0.29 0.0 0 1 672.03 415.95
  L 675.74 338.86
  A 0.71 0.70 2.8 0 0 675.06 338.12
  L 602.36 335.52
  A 0.60 0.60 0.0 0 0 601.74 336.05
  L 587.03 459.49
  A 0.58 0.57 -86.6 0 1 586.46 460.00
  L 571.30 460.00
  A 0.31 0.31 0.0 0 1 570.99 459.66
  L 582.63 335.28
  A 0.44 0.44 0.0 0 0 582.20 334.80
  L 478.03 331.06
  A 0.83 0.83 0.0 0 0 477.26 331.51
  L 423.25 434.50
  A 0.93 0.90 -75.9 0 1 422.44 435.00
  L 407.34 435.00
  A 0.29 0.29 0.0 0 1 407.08 434.58
  L 457.00 330.76
  Z
  M 605.43 87.09
  L 486.28 314.33
  A 0.21 0.21 0.0 0 0 486.46 314.64
  L 583.89 316.31
  A 0.56 0.56 0.0 0 0 584.46 315.80
  L 605.84 87.21
  A 0.22 0.22 0.0 0 0 605.43 87.09
  Z"
/>
<path fill="#222221" d="
  M 867.22 569.75
  C 867.22 589.15 862.84 611.31 849.12 625.83
  C 836.04 639.67 818.76 644.01 799.75 643.44
  C 786.82 643.05 774.87 639.58 764.79 631.70
  C 746.28 617.24 742.73 591.34 742.72 569.67
  C 742.72 550.28 747.11 528.11 760.82 513.60
  C 773.90 499.75 791.18 495.41 810.19 495.98
  C 823.12 496.37 835.07 499.84 845.16 507.72
  C 863.66 522.19 867.22 548.08 867.22 569.75
  Z
  M 757.47 564.74
  Q 756.48 581.65 760.64 597.84
  Q 762.81 606.28 768.07 614.00
  C 777.31 627.54 792.94 631.50 808.25 630.70
  C 833.07 629.40 846.72 612.27 850.98 589.00
  Q 852.35 581.49 852.46 574.75
  Q 852.46 574.60 852.47 574.49
  Q 853.46 557.57 849.29 541.39
  Q 847.12 532.94 841.86 525.22
  C 832.62 511.68 816.99 507.72 801.68 508.52
  C 776.86 509.82 763.21 526.95 758.95 550.22
  Q 757.58 557.73 757.47 564.47
  Q 757.47 564.63 757.47 564.74
  Z"
/>
<path fill="#222221" d="
  M 0.00 641.08
  L 0.00 638.09
  L 50.86 499.72
  A 2.19 2.15 -7.3 0 1 51.67 498.69
  C 55.24 496.30 61.76 496.73 65.53 497.69
  A 3.96 3.95 -3.0 0 1 68.28 500.16
  L 118.89 638.21
  A 1.05 1.05 0.0 0 1 118.95 638.56
  L 118.98 639.70
  A 2.33 2.32 86.3 0 1 116.90 642.08
  Q 112.81 642.49 108.05 642.15
  Q 105.25 641.95 104.41 639.61
  Q 96.43 617.37 91.07 601.81
  A 0.83 0.82 80.6 0 0 90.29 601.25
  L 28.62 601.25
  A 0.81 0.79 -80.1 0 0 27.87 601.79
  Q 23.74 613.65 14.51 639.47
  Q 13.62 641.97 10.71 642.29
  Q 4.50 642.98 0.00 641.08
  Z
  M 32.10 589.20
  A 0.33 0.33 0.0 0 0 32.41 589.64
  L 85.86 589.36
  A 0.33 0.33 0.0 0 0 86.17 588.91
  L 59.05 513.58
  A 0.33 0.33 0.0 0 0 58.43 513.59
  L 32.10 589.20
  Z"
/>
<path fill="#222221" d="
  M 158.07 628.85
  A 0.40 0.40 0.0 0 0 158.47 629.25
  L 213.29 629.25
  A 2.62 2.62 0.0 0 1 215.75 630.97
  Q 217.32 635.23 215.77 639.70
  A 3.02 3.01 -80.5 0 1 212.94 641.73
  Q 207.46 641.75 151.02 641.74
  C 145.05 641.74 144.02 637.57 144.18 632.06
  Q 144.25 629.68 144.18 499.95
  A 2.27 2.26 -8.0 0 1 145.83 497.77
  Q 151.42 496.18 156.57 497.82
  A 2.16 2.15 8.9 0 1 158.07 499.87
  L 158.07 628.85
  Z"
/>
<path fill="#222221" d="
  M 474.64 497.00
  C 477.20 497.00 482.23 497.00 483.32 499.96
  Q 504.13 556.62 534.11 638.46
  A 2.74 2.52 63.2 0 1 533.23 641.55
  C 531.52 642.75 526.37 642.33 523.32 642.15
  C 520.97 642.02 520.00 640.98 519.18 638.67
  Q 511.18 616.03 506.12 601.74
  A 0.67 0.66 -9.1 0 0 505.49 601.29
  Q 499.88 601.26 474.59 601.25
  Q 449.31 601.24 443.70 601.27
  A 0.67 0.66 9.2 0 0 443.07 601.72
  Q 438.00 616.00 429.98 638.64
  C 429.16 640.94 428.19 641.98 425.84 642.11
  C 422.79 642.29 417.64 642.71 415.93 641.50
  A 2.74 2.52 -63.2 0 1 415.05 638.41
  Q 445.09 556.60 465.95 499.95
  C 467.04 496.99 472.07 497.00 474.64 497.00
  Z
  M 447.24 589.18
  A 0.34 0.34 0.0 0 0 447.57 589.64
  L 500.98 589.36
  A 0.34 0.34 0.0 0 0 501.30 588.90
  L 474.20 513.61
  A 0.34 0.34 0.0 0 0 473.56 513.61
  L 447.24 589.18
  Z"
/>
<path fill="#222221" d="
  M 660.25 560.25
  Q 692.63 560.25 695.37 560.18
  A 0.65 0.65 0.0 0 0 696.00 559.53
  L 696.00 499.69
  A 1.94 1.93 80.5 0 1 697.30 497.86
  Q 702.20 496.16 708.21 497.74
  A 2.08 2.08 0.0 0 1 709.76 499.75
  Q 709.74 624.71 709.77 637.73
  Q 709.78 640.60 709.10 641.11
  C 706.70 642.89 700.52 642.41 697.71 641.76
  A 2.20 2.19 6.4 0 1 696.00 639.62
  L 696.00 572.92
  A 0.42 0.41 -87.1 0 0 695.63 572.50
  Q 695.55 572.49 660.25 572.49
  Q 624.95 572.49 624.87 572.50
  A 0.42 0.41 87.1 0 0 624.50 572.92
  L 624.50 639.62
  A 2.20 2.19 -6.4 0 1 622.79 641.76
  C 619.98 642.41 613.81 642.89 611.40 641.11
  Q 610.72 640.60 610.73 637.73
  Q 610.76 624.71 610.74 499.75
  A 2.08 2.08 0.0 0 1 612.29 497.74
  Q 618.30 496.16 623.20 497.86
  A 1.94 1.93 -80.5 0 1 624.50 499.69
  L 624.50 559.53
  A 0.65 0.65 0.0 0 0 625.13 560.18
  Q 627.87 560.25 660.25 560.25
  Z"
/>
<path fill="#222221" d="
  M 1128.15 628.84
  A 0.40 0.40 0.0 0 0 1128.55 629.24
  L 1183.38 629.26
  A 2.62 2.62 0.0 0 1 1185.84 630.99
  Q 1187.41 635.25 1185.85 639.72
  A 3.02 3.01 -80.5 0 1 1183.02 641.75
  Q 1177.54 641.76 1121.10 641.73
  C 1115.13 641.73 1114.10 637.56 1114.26 632.05
  Q 1114.33 629.67 1114.32 499.93
  A 2.27 2.27 0.0 0 1 1115.97 497.75
  Q 1121.56 496.16 1126.71 497.80
  A 2.16 2.15 8.9 0 1 1128.21 499.85
  L 1128.15 628.84
  Z"
/>
<path fill="#222221" d="
  M 253.61 510.92
  A 0.18 0.18 0.0 0 0 253.26 510.99
  Q 253.23 530.28 253.26 638.79
  Q 253.26 641.51 250.92 641.92
  Q 246.48 642.71 241.36 641.85
  A 2.23 2.23 0.0 0 1 239.50 639.66
  Q 239.47 532.42 239.53 503.52
  Q 239.54 500.04 242.20 498.63
  Q 244.02 497.66 247.95 497.70
  C 254.48 497.76 259.08 497.16 263.51 501.52
  Q 265.25 503.24 267.92 509.75
  Q 270.61 516.34 313.81 620.77
  A 0.23 0.23 0.0 0 0 314.24 620.78
  Q 347.87 543.05 364.36 505.13
  Q 367.04 498.97 373.28 497.77
  A 3.94 3.62 -47.4 0 1 374.10 497.70
  C 378.13 497.82 384.80 496.96 387.13 498.95
  Q 389.74 501.17 389.74 504.53
  Q 389.76 522.49 389.76 638.01
  Q 389.76 640.86 388.29 641.56
  C 385.65 642.82 379.77 642.40 377.13 641.57
  A 1.96 1.96 0.0 0 1 375.75 639.70
  L 375.75 510.84
  A 0.19 0.19 0.0 0 0 375.39 510.76
  Q 347.66 574.87 319.42 640.17
  C 318.22 642.95 311.72 642.38 309.24 642.02
  A 3.39 3.37 -6.9 0 1 306.60 639.96
  L 253.61 510.92
  Z"
/>
<path fill="#222221" d="
  M 927.62 497.75
  Q 977.62 497.75 977.70 497.75
  A 2.61 2.60 -10.3 0 1 980.07 499.39
  Q 981.92 504.04 980.06 508.40
  A 2.63 2.63 0.0 0 1 977.64 510.00
  L 934.87 510.00
  A 0.37 0.36 -0.0 0 0 934.50 510.36
  Q 934.48 633.39 934.53 638.19
  Q 934.56 640.21 933.73 641.10
  C 932.53 642.39 929.24 642.25 927.62 642.25
  C 926.01 642.25 922.72 642.39 921.52 641.10
  Q 920.69 640.21 920.72 638.19
  Q 920.77 633.39 920.75 510.36
  A 0.37 0.36 -0.0 0 0 920.38 510.00
  L 877.61 510.00
  A 2.63 2.63 0.0 0 1 875.19 508.40
  Q 873.33 504.04 875.18 499.39
  A 2.61 2.60 10.3 0 1 877.54 497.75
  Q 877.62 497.75 927.62 497.75
  Z"
/>
<path fill="#222221" d="
  M 1017.73 560.47
  Q 1063.13 560.50 1067.05 560.44
  Q 1070.31 560.40 1070.94 563.04
  C 1071.61 565.81 1072.24 572.24 1068.00 572.24
  Q 1053.95 572.25 1017.63 572.25
  A 0.63 0.63 0.0 0 0 1017.00 572.88
  L 1017.00 629.16
  A 0.33 0.33 0.0 0 0 1017.33 629.49
  L 1076.99 629.49
  A 2.99 2.99 0.0 0 1 1079.78 631.40
  Q 1081.38 635.52 1079.71 639.80
  A 3.03 3.02 10.6 0 1 1076.89 641.72
  Q 1058.40 641.77 1009.53 641.73
  Q 1006.02 641.73 1004.04 638.49
  Q 1003.13 637.00 1003.25 631.85
  Q 1003.26 631.52 1003.27 503.76
  Q 1003.27 500.07 1006.05 498.61
  Q 1007.73 497.73 1012.09 497.73
  Q 1056.12 497.76 1076.05 497.75
  A 2.73 2.73 0.0 0 1 1078.65 499.64
  C 1079.51 502.28 1080.40 509.99 1075.75 509.99
  Q 1034.71 510.02 1017.33 509.99
  A 0.33 0.33 0.0 0 0 1017.00 510.32
  L 1017.00 559.74
  A 0.73 0.73 0.0 0 0 1017.73 560.47
  Z"
/>
<path fill="#c20e1a" d="
  M 746.63 726.81
  A 1.02 1.01 -5.0 0 1 745.63 728.00
  L 739.60 728.00
  A 0.90 0.89 85.9 0 1 738.72 727.23
  C 737.43 718.37 727.36 717.90 719.91 718.88
  C 714.37 719.61 708.24 725.36 714.26 730.52
  Q 715.38 731.49 719.62 732.61
  Q 723.01 733.51 733.30 735.70
  C 742.43 737.65 750.98 743.45 747.41 754.19
  C 744.55 762.78 733.50 765.66 725.05 765.24
  C 714.26 764.71 702.84 760.96 701.99 748.27
  A 0.78 0.78 0.0 0 1 702.77 747.44
  L 709.01 747.44
  A 0.59 0.58 -4.6 0 1 709.59 747.93
  C 711.26 758.03 722.65 759.90 731.22 758.51
  Q 736.67 757.62 739.19 754.29
  C 743.03 749.22 738.89 745.01 733.91 743.34
  Q 731.52 742.54 718.58 739.70
  C 711.14 738.06 703.16 733.79 704.34 724.86
  C 706.04 711.91 723.85 711.07 733.29 713.23
  Q 744.70 715.84 746.63 726.81
  Z"
/>
<path fill="#c20e1a" d="
  M 471.91 732.53
  L 491.56 732.54
  A 0.34 0.34 0.0 0 1 491.75 733.16
  L 475.87 744.71
  A 0.34 0.34 0.0 0 0 475.75 745.09
  L 481.80 763.78
  A 0.34 0.34 0.0 0 1 481.28 764.16
  L 465.38 752.62
  A 0.34 0.34 0.0 0 0 464.98 752.62
  L 449.08 764.16
  A 0.34 0.34 0.0 0 1 448.56 763.78
  L 454.61 745.09
  A 0.34 0.34 0.0 0 0 454.49 744.71
  L 438.61 733.16
  A 0.34 0.34 0.0 0 1 438.80 732.54
  L 458.45 732.53
  A 0.34 0.34 0.0 0 0 458.77 732.29
  L 464.86 713.61
  A 0.34 0.34 0.0 0 1 465.50 713.61
  L 471.59 732.29
  A 0.34 0.34 0.0 0 0 471.91 732.53
  Z"
/>
<path fill="#c20e1a" d="
  M 563.82 732.52
  L 583.47 732.53
  A 0.34 0.34 0.0 0 1 583.67 733.15
  L 567.78 744.72
  A 0.34 0.34 0.0 0 0 567.66 745.10
  L 573.72 763.80
  A 0.34 0.34 0.0 0 1 573.19 764.18
  L 557.28 752.63
  A 0.34 0.34 0.0 0 0 556.88 752.63
  L 540.97 764.18
  A 0.34 0.34 0.0 0 1 540.44 763.80
  L 546.50 745.10
  A 0.34 0.34 0.0 0 0 546.38 744.72
  L 530.49 733.15
  A 0.34 0.34 0.0 0 1 530.69 732.53
  L 550.34 732.52
  A 0.34 0.34 0.0 0 0 550.67 732.28
  L 556.76 713.59
  A 0.34 0.34 0.0 0 1 557.40 713.59
  L 563.49 732.28
  A 0.34 0.34 0.0 0 0 563.82 732.52
  Z"
/>
<path fill="#c20e1a" d="
  M 655.72 732.52
  L 675.40 732.52
  A 0.34 0.34 0.0 0 1 675.60 733.14
  L 659.68 744.70
  A 0.34 0.34 0.0 0 0 659.56 745.08
  L 665.64 763.79
  A 0.34 0.34 0.0 0 1 665.12 764.17
  L 649.20 752.61
  A 0.34 0.34 0.0 0 0 648.80 752.61
  L 632.88 764.17
  A 0.34 0.34 0.0 0 1 632.36 763.79
  L 638.44 745.08
  A 0.34 0.34 0.0 0 0 638.32 744.70
  L 622.40 733.14
  A 0.34 0.34 0.0 0 1 622.60 732.52
  L 642.28 732.52
  A 0.34 0.34 0.0 0 0 642.60 732.29
  L 648.68 713.58
  A 0.34 0.34 0.0 0 1 649.32 713.58
  L 655.40 732.29
  A 0.34 0.34 0.0 0 0 655.72 732.52
  Z"
/>
<path fill="#222221" d="
  M 395.01 735.70
  L 395.01 739.16
  A 0.57 0.57 0.0 0 1 394.42 739.73
  Q 306.52 737.41 217.75 736.44
  Q 214.55 736.41 214.50 736.40
  Q 179.67 736.05 168.50 735.94
  Q 83.94 735.05 44.50 735.71
  Q 40.02 735.79 35.52 735.78
  A 9.15 9.11 -50.9 0 0 33.62 735.98
  C 31.11 736.51 27.61 737.57 25.89 735.70
  A 0.53 0.52 51.7 0 1 25.98 734.91
  Q 27.22 734.08 29.50 734.03
  Q 81.13 732.92 122.25 733.00
  C 123.49 733.00 124.55 732.75 125.60 732.75
  Q 154.64 732.70 259.75 732.80
  Q 260.28 732.80 262.00 732.83
  Q 283.53 733.11 296.75 733.00
  Q 297.32 733.00 299.50 733.02
  Q 320.92 733.24 332.76 733.46
  C 352.83 733.83 375.31 733.89 394.36 735.00
  A 0.70 0.69 -88.3 0 1 395.01 735.70
  Z"
/>
<path fill="#222221" d="
  M 792.13 735.00
  C 811.18 733.89 833.66 733.83 853.72 733.46
  Q 865.56 733.24 886.98 733.02
  Q 889.16 733.00 889.73 733.00
  Q 902.95 733.11 924.48 732.83
  Q 926.20 732.80 926.73 732.80
  Q 1031.82 732.70 1060.86 732.75
  C 1061.91 732.75 1062.97 733.00 1064.21 733.00
  Q 1105.32 732.92 1156.95 734.03
  Q 1159.23 734.08 1160.47 734.91
  A 0.53 0.52 -51.7 0 1 1160.56 735.70
  C 1158.84 737.57 1155.34 736.51 1152.83 735.98
  A 9.15 9.10 50.9 0 0 1150.93 735.78
  Q 1146.43 735.79 1141.95 735.71
  Q 1102.51 735.05 1017.96 735.94
  Q 1006.80 736.05 971.97 736.40
  Q 971.92 736.41 968.72 736.44
  Q 879.96 737.41 792.07 739.73
  A 0.57 0.57 0.0 0 1 791.48 739.16
  L 791.48 735.70
  A 0.70 0.69 88.3 0 1 792.13 735.00
  Z"
/>
</svg>
