<?xml version="1.0" encoding="UTF-8" standalone="no"?>
<!DOCTYPE svg PUBLIC "-//W3C//DTD SVG 1.1//EN" "http://www.w3.org/Graphics/SVG/1.1/DTD/svg11.dtd">
<svg xmlns="http://www.w3.org/2000/svg" version="1.1" viewBox="0.00 0.00 1187.00 767.00">
<path fill="#c20e1a" d="
  M 457.00 330.76
  A 0.33 0.33 0.0 0 0 456.72 330.29
  L 390.27 327.91
  A 0.55 0.54 1.1 0 1 389.74 327.37
  L 389.74 313.65
  A 0.72 0.71 0.4 0 1 390.47 312.94
  L 464.41 314.21
  A 0.86 0.86 0.0 0 0 465.20 313.72
  Q 526.87 185.49 606.79 19.29
  C 610.11 12.38 612.01 7.59 617.75 4.33
  C 623.83 0.88 631.42 1.89 635.98 7.30
  C 639.35 11.30 639.94 16.81 639.09 22.49
  Q 639.02 22.97 604.09 316.36
  A 0.36 0.35 -85.6 0 0 604.43 316.76
  L 676.38 317.99
  A 0.39 0.38 -87.7 0 0 676.77 317.62
  Q 677.00 312.33 683.23 183.02
  C 683.52 177.03 690.85 174.96 695.65 176.14
  Q 701.40 177.56 702.93 182.12
  Q 703.49 183.78 702.85 191.89
  Q 702.26 199.46 693.97 317.61
  A 0.69 0.69 0.0 0 0 694.65 318.35
  L 726.93 318.90
  A 0.31 0.31 0.0 0 0 727.25 318.63
  Q 745.28 206.17 745.34 205.67
  Q 745.90 200.60 747.64 198.66
  C 753.15 192.54 767.56 194.34 765.63 204.93
  Q 747.18 306.30 744.88 318.63
  A 0.49 0.48 5.6 0 0 745.35 319.20
  Q 760.77 319.57 786.63 319.96
  Q 790.76 320.02 792.20 320.84
  C 798.95 324.70 797.55 338.31 790.72 341.44
  Q 788.99 342.23 784.92 342.08
  Q 760.98 341.20 741.19 340.49
  A 0.31 0.31 0.0 0 0 740.87 340.75
  L 723.64 435.13
  A 0.46 0.45 5.3 0 1 723.19 435.50
  L 709.11 435.50
  A 0.47 0.46 4.7 0 1 708.65 434.96
  L 723.76 340.49
  A 0.56 0.56 0.0 0 0 723.23 339.84
  L 693.13 338.77
  A 0.68 0.68 0.0 0 0 692.42 339.40
  L 687.05 415.68
  A 0.61 0.61 0.0 0 1 686.44 416.25
  L 672.32 416.25
  A 0.29 0.29 0.0 0 1 672.03 415.95
  L 675.74 338.86
  A 0.71 0.70 2.8 0 0 675.06 338.12
  L 602.36 335.52
  A 0.60 0.60 0.0 0 0 601.74 336.05
  L 587.03 459.49
  A 0.58 0.57 -86.6 0 1 586.46 460.00
  L 571.30 460.00
  A 0.31 0.31 0.0 0 1 570.99 459.66
  L 582.63 335.28
  A 0.44 0.44 0.0 0 0 582.20 334.80
  L 478.03 331.06
  A 0.83 0.83 0.0 0 0 477.26 331.51
  L 423.25 434.50
  A 0.93 0.90 -75.9 0 1 422.44 435.00
  L 407.34 435.00
  A 0.29 0.29 0.0 0 1 407.08 434.58
  L 457.00 330.76
  Z
  M 605.43 87.09
  L 486.28 314.33
  A 0.21 0.21 0.0 0 0 486.46 314.64
  L 583.89 316.31
  A 0.56 0.56 0.0 0 0 584.46 315.80
  L 605.84 87.21
  A 0.22 0.22 0.0 0 0 605.43 87.09
  Z"
/>
<path fill="#ffffff" d="
  M 742.72 569.75
  Q 742.73 550.71 747.98 535.70
  C 758.60 505.32 783.80 493.48 814.95 496.34
  C 831.14 497.82 845.38 504.61 854.65 517.89
  C 865.03 532.76 867.22 552.01 867.22 569.68
  Q 867.21 588.72 861.96 603.73
  C 851.34 634.11 826.14 645.95 794.99 643.09
  C 778.80 641.61 764.56 634.82 755.29 621.54
  C 744.92 606.67 742.72 587.42 742.72 569.75
  Z
  M 757.21 569.75
  Q 757.22 584.01 760.33 596.67
  C 763.91 611.30 773.56 624.71 788.77 628.75
  C 799.00 631.47 811.75 631.74 821.51 628.21
  C 846.22 619.29 852.74 593.32 852.72 569.48
  Q 852.71 555.21 849.60 542.55
  C 846.02 527.93 836.37 514.52 821.16 510.48
  C 810.93 507.76 798.18 507.49 788.42 511.01
  C 763.72 519.94 757.19 545.91 757.21 569.75
  Z"
/>
<path fill="#ffffff" d="
  M 0.00 641.09
  L 0.00 638.09
  Q 25.41 569.05 50.76 500.01
  C 52.29 495.84 62.37 496.91 65.66 497.75
  A 3.75 3.75 0.0 0 1 68.25 500.09
  L 118.94 638.36
  A 0.49 0.41 39.7 0 1 118.97 638.52
  L 118.97 639.73
  A 2.38 2.38 0.0 0 1 116.80 642.10
  Q 112.79 642.46 108.30 642.18
  Q 105.19 641.99 104.17 639.07
  Q 98.42 622.71 91.01 601.82
  A 0.87 0.86 79.8 0 0 90.20 601.25
  L 28.66 601.25
  A 0.81 0.80 -80.3 0 0 27.90 601.79
  Q 16.24 634.65 14.73 638.99
  Q 13.71 641.91 10.72 642.25
  Q 4.52 642.97 0.00 641.09
  Z
  M 32.09 589.21
  A 0.32 0.32 0.0 0 0 32.40 589.64
  L 85.87 589.36
  A 0.32 0.32 0.0 0 0 86.17 588.93
  L 59.04 513.55
  A 0.32 0.32 0.0 0 0 58.43 513.55
  L 32.09 589.21
  Z"
/>
<path fill="#ffffff" d="
  M 158.78 629.25
  Q 196.12 629.29 212.28 629.20
  Q 215.02 629.18 215.68 630.74
  C 216.98 633.84 217.64 641.83 212.06 641.78
  Q 204.57 641.71 151.04 641.76
  C 145.14 641.76 143.99 637.66 144.21 632.06
  Q 144.21 632.00 144.19 499.97
  A 2.30 2.29 82.4 0 1 145.88 497.75
  Q 151.41 496.23 156.27 497.72
  C 158.38 498.37 158.05 499.93 158.05 502.08
  Q 158.05 580.97 158.09 628.56
  A 0.69 0.69 0.0 0 0 158.78 629.25
  Z"
/>
<path fill="#ffffff" d="
  M 474.64 497.00
  C 477.21 497.00 482.21 496.98 483.31 499.97
  Q 507.99 567.04 533.86 637.81
  Q 534.43 639.38 534.17 640.18
  A 3.03 2.76 6.0 0 1 531.50 642.14
  Q 525.99 642.46 523.30 642.15
  C 520.88 641.88 520.03 641.07 519.18 638.67
  Q 511.12 615.87 506.12 601.71
  A 0.61 0.60 -9.1 0 0 505.56 601.31
  Q 502.03 601.26 474.60 601.25
  Q 447.16 601.24 443.63 601.29
  A 0.61 0.60 9.2 0 0 443.07 601.69
  Q 438.06 615.84 429.98 638.64
  C 429.13 641.03 428.28 641.84 425.86 642.11
  Q 423.17 642.42 417.66 642.10
  A 3.03 2.76 -6.0 0 1 414.99 640.13
  Q 414.73 639.33 415.30 637.76
  Q 441.23 567.01 465.96 499.96
  C 467.06 496.98 472.06 497.00 474.64 497.00
  Z
  M 447.24 589.19
  A 0.34 0.34 0.0 0 0 447.57 589.64
  L 500.98 589.36
  A 0.34 0.34 0.0 0 0 501.30 588.90
  L 474.20 513.60
  A 0.34 0.34 0.0 0 0 473.56 513.61
  L 447.24 589.19
  Z"
/>
<path fill="#ffffff" d="
  M 660.25 560.26
  Q 693.26 560.26 695.67 560.26
  A 0.33 0.33 0.0 0 0 696.00 559.93
  L 696.00 499.63
  A 1.84 1.83 80.3 0 1 697.22 497.90
  Q 702.15 496.14 708.21 497.74
  A 2.07 2.07 0.0 0 1 709.75 499.74
  Q 709.75 638.51 709.75 638.55
  C 709.97 641.26 708.53 641.78 706.14 642.12
  Q 703.17 642.54 698.78 642.01
  Q 695.95 641.67 695.96 638.76
  Q 696.08 602.97 695.98 572.81
  A 0.29 0.29 0.0 0 0 695.69 572.52
  Q 685.19 572.50 660.25 572.50
  Q 635.30 572.50 624.80 572.52
  A 0.29 0.29 0.0 0 0 624.52 572.81
  Q 624.42 602.97 624.54 638.76
  Q 624.55 641.67 621.72 642.01
  Q 617.33 642.54 614.36 642.12
  C 611.97 641.78 610.53 641.26 610.75 638.55
  Q 610.75 638.51 610.75 499.74
  A 2.07 2.07 0.0 0 1 612.28 497.74
  Q 618.34 496.14 623.27 497.90
  A 1.84 1.83 -80.3 0 1 624.50 499.63
  L 624.50 559.93
  A 0.33 0.33 0.0 0 0 624.83 560.26
  Q 627.24 560.26 660.25 560.26
  Z"
/>
<path fill="#ffffff" d="
  M 1128.18 628.55
  A 0.69 0.69 0.0 0 0 1128.87 629.24
  Q 1166.21 629.30 1182.37 629.21
  Q 1185.11 629.20 1185.77 630.76
  C 1187.07 633.86 1187.73 641.85 1182.15 641.80
  Q 1174.66 641.72 1121.12 641.75
  C 1115.22 641.75 1114.07 637.65 1114.29 632.05
  Q 1114.29 631.99 1114.32 499.95
  A 2.30 2.29 82.4 0 1 1116.01 497.73
  Q 1121.55 496.21 1126.41 497.70
  C 1128.52 498.35 1128.19 499.91 1128.18 502.06
  Q 1128.16 580.96 1128.18 628.55
  Z"
/>
<path fill="#ffffff" d="
  M 375.72 510.74
  A 0.15 0.15 0.0 0 0 375.43 510.68
  Q 374.96 511.76 319.29 640.47
  C 318.29 642.79 311.34 642.38 309.47 642.04
  C 306.95 641.59 306.76 640.36 305.72 637.82
  Q 279.63 574.28 253.57 510.84
  A 0.17 0.17 0.0 0 0 253.25 510.90
  L 253.25 640.00
  A 1.21 1.20 71.2 0 1 252.79 640.95
  C 250.26 643.00 244.25 642.35 241.19 641.80
  A 2.03 2.03 0.0 0 1 239.52 639.80
  Q 239.44 509.50 239.58 503.28
  Q 239.66 499.23 243.92 497.95
  A 3.28 3.12 -52.2 0 1 244.71 497.83
  Q 252.54 497.59 254.76 497.78
  Q 263.16 498.53 265.93 505.15
  Q 282.28 544.31 313.78 620.75
  A 0.26 0.26 0.0 0 0 314.26 620.75
  Q 343.12 553.96 364.66 504.46
  Q 366.62 499.97 371.66 498.21
  C 374.42 497.25 378.13 497.95 381.10 497.72
  C 386.06 497.35 389.70 499.39 389.71 504.53
  Q 389.75 516.84 389.75 637.79
  Q 389.75 641.90 386.15 642.18
  Q 382.12 642.50 378.13 641.91
  Q 375.74 641.55 375.74 639.00
  Q 375.79 560.21 375.72 510.74
  Z"
/>
<path fill="#ffffff" d="
  M 927.62 497.75
  Q 977.20 497.75 977.77 497.77
  A 2.55 2.55 0.0 0 1 980.06 499.39
  Q 981.96 504.20 979.98 508.54
  A 2.51 2.49 -77.6 0 1 977.71 510.00
  L 934.83 510.00
  A 0.34 0.33 0.0 0 0 934.49 510.33
  L 934.49 639.83
  A 0.85 0.81 59.5 0 1 934.40 640.21
  C 933.17 642.62 929.33 642.25 927.62 642.25
  C 925.91 642.25 922.08 642.62 920.84 640.21
  A 0.85 0.81 -59.5 0 1 920.75 639.83
  L 920.75 510.33
  A 0.34 0.33 0.0 0 0 920.41 510.00
  L 877.53 510.00
  A 2.51 2.49 77.6 0 1 875.26 508.54
  Q 873.28 504.20 875.18 499.39
  A 2.55 2.55 0.0 0 1 877.47 497.77
  Q 878.05 497.75 927.62 497.75
  Z"
/>
<path fill="#ffffff" d="
  M 1017.71 560.50
  Q 1060.56 560.52 1067.25 560.48
  C 1069.22 560.46 1070.35 561.05 1070.89 562.97
  Q 1072.07 567.15 1070.72 570.59
  A 2.62 2.61 10.6 0 1 1068.28 572.25
  L 1017.37 572.25
  A 0.37 0.37 0.0 0 0 1017.00 572.62
  L 1017.00 628.90
  A 0.60 0.60 0.0 0 0 1017.60 629.50
  L 1076.97 629.50
  A 3.03 3.03 0.0 0 1 1079.81 631.48
  Q 1081.34 635.64 1079.73 639.75
  A 3.11 3.11 0.0 0 1 1076.85 641.73
  Q 1063.21 641.78 1009.78 641.73
  Q 1005.92 641.73 1004.06 638.57
  Q 1003.09 636.92 1003.22 631.79
  Q 1003.27 630.06 1003.26 503.78
  Q 1003.26 498.96 1008.25 497.83
  A 3.10 2.61 33.9 0 1 1008.89 497.76
  Q 1025.09 497.75 1075.32 497.74
  Q 1078.19 497.74 1078.73 499.79
  Q 1079.69 503.43 1079.07 506.86
  C 1078.66 509.14 1077.49 510.01 1075.07 510.01
  Q 1050.07 509.99 1017.36 510.00
  A 0.37 0.36 90.0 0 0 1017.00 510.37
  L 1017.00 559.79
  A 0.71 0.71 0.0 0 0 1017.71 560.50
  Z"
/>
<path fill="#c20e1a" d="
  M 746.60 726.78
  A 1.05 1.05 0.0 0 1 745.56 728.00
  L 739.71 728.00
  A 1.01 1.01 0.0 0 1 738.72 727.17
  C 737.32 719.40 729.65 718.15 722.78 718.53
  C 718.69 718.75 714.97 719.69 712.68 723.22
  C 710.97 725.83 711.94 728.74 714.24 730.53
  Q 715.69 731.67 719.63 732.61
  Q 727.01 734.38 733.29 735.70
  C 738.39 736.77 745.01 739.58 747.16 744.66
  C 751.09 753.94 744.27 761.60 735.40 764.12
  C 729.37 765.83 722.36 765.51 716.30 764.08
  C 708.44 762.23 702.58 756.53 701.99 748.28
  A 0.78 0.78 0.0 0 1 702.77 747.44
  L 709.01 747.44
  A 0.61 0.60 84.8 0 1 709.60 747.94
  C 711.32 758.19 723.21 760.06 731.66 758.44
  Q 736.69 757.47 739.21 754.21
  C 743.16 749.10 738.63 744.88 733.72 743.28
  Q 731.57 742.57 718.37 739.64
  C 711.27 738.06 702.72 733.51 704.37 724.60
  C 706.71 712.00 723.36 710.91 733.32 713.24
  Q 744.80 715.93 746.60 726.78
  Z"
/>
<path fill="#c20e1a" d="
  M 471.91 732.53
  L 491.56 732.54
  A 0.34 0.34 0.0 0 1 491.75 733.16
  L 475.87 744.71
  A 0.34 0.34 0.0 0 0 475.75 745.09
  L 481.80 763.78
  A 0.34 0.34 0.0 0 1 481.28 764.16
  L 465.38 752.62
  A 0.34 0.34 0.0 0 0 464.98 752.62
  L 449.08 764.16
  A 0.34 0.34 0.0 0 1 448.56 763.78
  L 454.61 745.09
  A 0.34 0.34 0.0 0 0 454.49 744.71
  L 438.61 733.16
  A 0.34 0.34 0.0 0 1 438.80 732.54
  L 458.45 732.53
  A 0.34 0.34 0.0 0 0 458.77 732.29
  L 464.86 713.61
  A 0.34 0.34 0.0 0 1 465.50 713.61
  L 471.59 732.29
  A 0.34 0.34 0.0 0 0 471.91 732.53
  Z"
/>
<path fill="#c20e1a" d="
  M 563.82 732.52
  L 583.47 732.53
  A 0.34 0.34 0.0 0 1 583.67 733.15
  L 567.78 744.72
  A 0.34 0.34 0.0 0 0 567.66 745.10
  L 573.72 763.80
  A 0.34 0.34 0.0 0 1 573.19 764.18
  L 557.28 752.63
  A 0.34 0.34 0.0 0 0 556.88 752.63
  L 540.97 764.18
  A 0.34 0.34 0.0 0 1 540.44 763.80
  L 546.50 745.10
  A 0.34 0.34 0.0 0 0 546.38 744.72
  L 530.49 733.15
  A 0.34 0.34 0.0 0 1 530.69 732.53
  L 550.34 732.52
  A 0.34 0.34 0.0 0 0 550.67 732.28
  L 556.76 713.59
  A 0.34 0.34 0.0 0 1 557.40 713.59
  L 563.49 732.28
  A 0.34 0.34 0.0 0 0 563.82 732.52
  Z"
/>
<path fill="#c20e1a" d="
  M 655.72 732.52
  L 675.40 732.52
  A 0.34 0.34 0.0 0 1 675.60 733.14
  L 659.68 744.70
  A 0.34 0.34 0.0 0 0 659.56 745.08
  L 665.64 763.79
  A 0.34 0.34 0.0 0 1 665.12 764.17
  L 649.20 752.61
  A 0.34 0.34 0.0 0 0 648.80 752.61
  L 632.88 764.17
  A 0.34 0.34 0.0 0 1 632.36 763.79
  L 638.44 745.08
  A 0.34 0.34 0.0 0 0 638.32 744.70
  L 622.40 733.14
  A 0.34 0.34 0.0 0 1 622.60 732.52
  L 642.28 732.52
  A 0.34 0.34 0.0 0 0 642.60 732.29
  L 648.68 713.58
  A 0.34 0.34 0.0 0 1 649.32 713.58
  L 655.40 732.29
  A 0.34 0.34 0.0 0 0 655.72 732.52
  Z"
/>
<path fill="#ffffff" d="
  M 394.37 739.70
  Q 274.90 736.72 173.00 735.96
  Q 172.48 735.96 168.50 735.92
  Q 86.24 735.09 45.00 735.68
  Q 41.12 735.74 36.98 735.76
  C 33.33 735.79 30.83 736.82 27.23 736.71
  A 1.21 1.20 -87.4 0 1 26.07 735.43
  L 26.07 735.38
  A 1.40 1.39 1.1 0 1 27.43 734.08
  Q 87.25 732.85 119.50 733.01
  Q 119.72 733.01 124.76 732.95
  Q 155.51 732.55 259.56 732.79
  C 260.38 732.79 261.15 733.01 261.92 733.01
  Q 290.19 732.83 359.41 733.87
  Q 383.15 734.23 394.46 735.04
  A 0.59 0.59 0.0 0 1 395.02 735.63
  L 395.02 739.07
  A 0.63 0.63 0.0 0 1 394.37 739.70
  Z"
/>
<path fill="#ffffff" d="
  M 791.49 739.07
  L 791.49 735.63
  A 0.59 0.59 0.0 0 1 792.05 735.04
  Q 803.36 734.23 827.09 733.87
  Q 896.30 732.83 924.57 733.01
  C 925.34 733.01 926.11 732.79 926.93 732.79
  Q 1030.96 732.55 1061.70 732.95
  Q 1066.74 733.01 1066.96 733.01
  Q 1099.20 732.85 1159.01 734.08
  A 1.40 1.39 -1.1 0 1 1160.37 735.38
  L 1160.37 735.43
  A 1.21 1.20 87.4 0 1 1159.21 736.71
  C 1155.61 736.82 1153.11 735.79 1149.46 735.76
  Q 1145.32 735.74 1141.45 735.68
  Q 1100.21 735.09 1017.97 735.92
  Q 1013.99 735.96 1013.47 735.96
  Q 911.59 736.72 792.14 739.70
  A 0.63 0.63 0.0 0 1 791.49 739.07
  Z"
/>
</svg>
